<svg width="222" height="339" viewBox="0 0 222 339" fill="none" xmlns="http://www.w3.org/2000/svg">
<path d="M221.434 113.837C221.434 176.48 169.104 227.258 113.385 227.258C57.6672 227.258 0.557556 176.48 0.557556 113.837C0.557556 51.1938 57.6672 0.415466 113.385 0.415466C169.104 0.415466 221.434 51.1978 221.434 113.837Z" fill="url(#paint0_linear)"/>
<path d="M216.261 113.837C216.261 173.545 166.381 221.949 113.269 221.949C60.1572 221.949 5.73001 173.549 5.73001 113.837C5.73001 54.1249 60.1612 5.72426 113.273 5.72426C166.385 5.72426 216.261 54.145 216.261 113.837Z" fill="#6C63FF"/>
<path d="M97.5593 262.078C97.5593 258.305 94.1631 255.262 89.973 255.262C85.7829 255.262 82.3867 258.321 82.3867 262.078C82.3867 265.258 84.7925 267.924 88.0765 268.686V274.031H91.8696V268.686C95.1415 267.924 97.5593 265.262 97.5593 262.078Z" fill="url(#paint1_linear)"/>
<path d="M70.2375 262.932L62.5549 255.25L62.4026 255.402V255.366C61.6006 253.666 60.2374 252.615 59.3873 253.02C58.5373 253.425 58.5052 255.137 59.3191 256.837C59.4936 257.202 59.7017 257.55 59.9407 257.876L59.1387 258.678C59.1387 258.678 78.7861 278.325 86.4606 277.463L87.9081 272.106C87.9081 272.106 81.3402 272.323 70.2375 262.932Z" fill="url(#paint2_linear)"/>
<path d="M89.7886 268.63C93.2786 268.63 96.1078 265.801 96.1078 262.311C96.1078 258.821 93.2786 255.991 89.7886 255.991C86.2986 255.991 83.4694 258.821 83.4694 262.311C83.4694 265.801 86.2986 268.63 89.7886 268.63Z" fill="#F8C198"/>
<path d="M91.3684 267.054H88.2088V273.373H91.3684V267.054Z" fill="#F8C198"/>
<path d="M92.9001 271.004H86.6771C84.9055 271.004 83.4694 272.44 83.4694 274.211V296.236C83.4694 298.008 84.9055 299.444 86.6771 299.444H92.9001C94.6717 299.444 96.1078 298.008 96.1078 296.236V274.211C96.1078 272.44 94.6717 271.004 92.9001 271.004Z" fill="#605B38"/>
<path d="M87.1783 271.577C87.1783 271.577 81.0997 271.794 70.8269 263.101L63.7178 255.991L60.5582 259.151C60.5582 259.151 78.7299 277.323 85.819 276.533L87.1783 271.577Z" fill="#605B38"/>
<path d="M63.5021 259.632C64.2892 259.256 64.3169 257.675 63.5641 256.1C62.8112 254.526 61.5627 253.555 60.7756 253.932C59.9885 254.308 59.9608 255.889 60.7137 257.464C61.4665 259.038 62.715 260.009 63.5021 259.632Z" fill="#F8C198"/>
<path d="M119.179 271.116C123.748 271.116 127.451 267.412 127.451 262.844C127.451 258.275 123.748 254.572 119.179 254.572C114.611 254.572 110.908 258.275 110.908 262.844C110.908 267.412 114.611 271.116 119.179 271.116Z" fill="url(#paint3_linear)"/>
<path d="M119.179 270.322C123.309 270.322 126.657 266.974 126.657 262.844C126.657 258.714 123.309 255.366 119.179 255.366C115.049 255.366 111.701 258.714 111.701 262.844C111.701 266.974 115.049 270.322 119.179 270.322Z" fill="#F8C198"/>
<path d="M121.048 268.453H117.307V275.931H121.048V268.453Z" fill="#F8C198"/>
<path d="M124.368 272.495H115.106C114.599 272.496 114.1 272.62 113.65 272.854C113.201 273.088 112.814 273.427 112.523 273.842C105.486 274.757 91.0075 276.168 89.54 272.495L88.8664 273C88.7457 272.538 88.5806 272.088 88.3732 271.657C87.4429 269.716 85.9032 268.518 84.9329 268.983C83.9626 269.448 83.9265 271.388 84.8567 273.337C85.1635 273.987 85.5693 274.585 86.0596 275.109L85.6586 275.418C85.6586 275.418 100.466 281.653 111.958 280.875V304.4C111.96 305.238 112.294 306.042 112.887 306.635C113.48 307.228 114.283 307.562 115.122 307.564H124.384C125.222 307.562 126.026 307.228 126.619 306.635C127.211 306.042 127.545 305.238 127.548 304.4V275.655C127.544 274.814 127.208 274.009 126.612 273.417C126.015 272.825 125.208 272.493 124.368 272.495V272.495Z" fill="url(#paint4_linear)"/>
<path d="M123.446 273.129H114.905C113.134 273.129 111.697 274.565 111.697 276.336V303.574C111.697 305.346 113.134 306.782 114.905 306.782H123.446C125.217 306.782 126.653 305.346 126.653 303.574V276.336C126.653 274.565 125.217 273.129 123.446 273.129Z" fill="#53AD9B"/>
<path d="M115.904 273.895C115.904 273.895 92.0661 277.8 90.1976 273.125L86.4565 275.931C86.4565 275.931 104.219 283.409 115.434 280.607C126.649 277.804 115.904 273.895 115.904 273.895Z" fill="#53AD9B"/>
<path d="M89.0082 276.501C89.9391 276.056 89.9711 274.184 89.0797 272.32C88.1883 270.456 86.7109 269.306 85.78 269.751C84.849 270.197 84.817 272.069 85.7084 273.933C86.5999 275.796 88.0772 276.946 89.0082 276.501Z" fill="#F8C198"/>
<path d="M111.87 254.768C112.064 254.752 112.258 254.797 112.426 254.895C112.594 254.993 112.727 255.141 112.808 255.318C113.578 253.634 115.398 252.603 117.219 252.367C119.039 252.13 120.912 252.571 122.664 253.169C124.905 253.934 127.099 254.993 128.787 256.653C130.475 258.313 131.593 260.663 131.397 263.016C131.245 264.752 130.406 266.344 129.581 267.876C129.071 268.826 128.518 269.813 127.608 270.386C125.707 271.589 123.013 270.318 121.994 268.317C121.657 267.656 121.449 266.934 121.076 266.312C119.949 264.372 117.616 263.578 115.607 262.571C112.094 260.787 111.818 258.333 111.87 254.768Z" fill="url(#paint5_linear)"/>
<path d="M143.462 279.693H75.9392V338.029H143.462V279.693Z" fill="url(#paint6_linear)"/>
<path d="M141.93 279.693H77.94V334.994H141.93V279.693Z" fill="#93560F"/>
<path d="M141.14 279.693L143.811 229.159" stroke="#AD7676" stroke-width="0.801933" stroke-miterlimit="10"/>
<path d="M79.5198 279.693L75.9071 229.159" stroke="#AD7676" stroke-width="0.801933" stroke-miterlimit="10"/>
<path opacity="0.2" d="M112.836 262.467C112.84 260.585 113.553 258.774 114.834 257.395C116.115 256.016 117.868 255.171 119.745 255.029C119.556 255.029 119.368 255.001 119.175 255.001C117.192 255.001 115.29 255.789 113.888 257.191C112.485 258.594 111.697 260.496 111.697 262.479C111.697 264.462 112.485 266.364 113.888 267.767C115.29 269.169 117.192 269.957 119.175 269.957C119.368 269.957 119.556 269.957 119.745 269.929C117.864 269.786 116.107 268.938 114.826 267.554C113.545 266.17 112.834 264.353 112.836 262.467Z" fill="white"/>
<path opacity="0.2" d="M84.3876 261.709C84.3884 259.824 85.1016 258.009 86.3843 256.627C87.6669 255.246 89.4243 254.4 91.3043 254.259C91.1158 254.259 90.9274 254.231 90.7349 254.231C88.7516 254.231 86.8495 255.019 85.4471 256.421C84.0447 257.824 83.2569 259.726 83.2569 261.709C83.2569 263.692 84.0447 265.595 85.4471 266.997C86.8495 268.399 88.7516 269.187 90.7349 269.187C90.9274 269.187 91.1158 269.187 91.3043 269.159C89.4243 269.019 87.6669 268.173 86.3843 266.791C85.1016 265.41 84.3884 263.594 84.3876 261.709V261.709Z" fill="white"/>
<path d="M88.5416 267.459C88.9473 267.729 89.326 268.038 89.6723 268.381C91.0156 270.053 88.4694 272.644 89.4237 274.568C89.8447 275.418 90.8471 275.851 91.2962 276.685C92.1503 278.269 90.7188 280.587 91.9578 281.898C92.2906 282.247 92.7598 282.451 93.0204 282.86C93.5216 283.662 92.8199 284.729 92.9322 285.667C93.0725 286.87 94.3877 287.511 95.5224 287.936C96.4888 288.297 97.7558 288.586 98.4134 287.788C98.7301 287.387 98.7903 286.862 99.087 286.457C99.6403 285.699 100.755 285.695 101.569 285.23C102.832 284.508 103.141 282.824 103.141 281.377C103.141 279.929 102.996 278.349 103.79 277.126C104.689 275.739 106.553 275.222 107.451 273.834C108.81 271.725 107.311 268.778 108.281 266.465C108.618 265.663 109.235 264.985 109.436 264.143C109.769 262.752 108.879 261.336 107.832 260.402C106.786 259.468 105.478 258.734 104.592 257.595C103.971 256.793 103.566 255.851 102.832 255.165C101.052 253.505 98.2209 254.099 95.8432 253.562C93.6419 253.084 91.613 251.577 89.3716 251.829C87.4109 252.05 85.8792 253.558 84.5119 254.981C84.1528 255.292 83.8887 255.698 83.75 256.152C83.3491 258.088 85.2296 260.081 86.0556 261.501C87.1101 263.401 86.7854 265.987 88.5416 267.459Z" fill="#FCCC63"/>
<g opacity="0.2">
<path opacity="0.2" d="M84.4878 256.549C85.8551 255.125 87.3868 253.618 89.3475 253.397C91.5849 253.145 93.6178 254.652 95.8191 255.129C98.1969 255.647 101.032 255.053 102.808 256.733C103.542 257.419 103.947 258.377 104.568 259.163C105.454 260.282 106.745 260.999 107.808 261.97C108.546 262.593 109.094 263.409 109.392 264.327C109.392 264.283 109.42 264.239 109.432 264.195C109.765 262.804 108.875 261.388 107.808 260.454C106.741 259.52 105.454 258.786 104.568 257.647C103.947 256.845 103.542 255.903 102.808 255.218C101.028 253.558 98.1969 254.151 95.8191 253.614C93.6178 253.137 91.5889 251.629 89.3475 251.881C87.3868 252.102 85.8551 253.61 84.4878 255.033C84.1287 255.344 83.8646 255.75 83.726 256.204C83.6447 256.646 83.6625 257.101 83.7781 257.535C83.9436 257.161 84.1853 256.825 84.4878 256.549Z" fill="white"/>
<path opacity="0.2" d="M93.0685 284.472C92.9578 284.863 92.9117 285.269 92.9322 285.675C92.9494 285.823 92.9858 285.969 93.0404 286.108C93.1687 285.539 93.3091 284.965 93.0685 284.472Z" fill="white"/>
<path opacity="0.2" d="M91.5328 278.923C91.425 279.586 91.4088 280.26 91.4847 280.928C91.5903 280.264 91.6065 279.59 91.5328 278.923V278.923Z" fill="white"/>
<path opacity="0.2" d="M108.021 272.014C108.059 271.142 108.036 270.268 107.952 269.4C107.914 270.272 107.936 271.145 108.021 272.014V272.014Z" fill="white"/>
<path opacity="0.2" d="M103.125 281.822C103.125 281.677 103.125 281.533 103.125 281.393C103.125 281.32 103.125 281.248 103.125 281.176C103.129 281.393 103.125 281.609 103.125 281.822Z" fill="white"/>
<path opacity="0.2" d="M89.965 270.434C89.6763 271.697 88.9426 273.085 89.3034 274.263C89.5841 272.944 90.3539 271.553 89.965 270.434Z" fill="white"/>
</g>
<path d="M112.435 255.157C112.618 255.142 112.8 255.184 112.958 255.277C113.116 255.369 113.241 255.508 113.317 255.675C114.043 254.071 115.755 253.116 117.487 252.892C119.22 252.667 120.968 253.084 122.62 253.65C124.733 254.371 126.798 255.37 128.39 256.934C129.981 258.497 131.044 260.707 130.848 262.948C130.703 264.584 129.913 266.084 129.135 267.527C128.654 268.421 128.133 269.352 127.275 269.893C125.483 271.02 122.944 269.829 121.978 267.944C121.661 267.323 121.465 266.641 121.112 266.04C120.05 264.211 117.848 263.465 115.96 262.515C112.644 260.835 112.383 258.521 112.435 255.157Z" fill="#263238"/>
<path opacity="0.2" d="M112.435 255.919C112.618 255.904 112.8 255.946 112.958 256.039C113.116 256.131 113.241 256.27 113.317 256.436C114.043 254.833 115.755 253.878 117.487 253.654C119.22 253.429 120.968 253.846 122.62 254.412C124.733 255.133 126.798 256.132 128.39 257.696C129.799 259.033 130.676 260.837 130.856 262.772C130.988 260.603 129.941 258.465 128.39 256.938C126.838 255.41 124.733 254.376 122.62 253.654C120.968 253.088 119.215 252.671 117.487 252.896C115.759 253.12 114.043 254.099 113.317 255.679C113.241 255.512 113.116 255.373 112.958 255.281C112.8 255.188 112.618 255.147 112.435 255.161C112.435 255.486 112.435 255.803 112.435 256.108C112.431 256.044 112.431 255.979 112.435 255.919Z" fill="white"/>
<path d="M120.671 225.743H96.7734V234.087H120.671V225.743Z" fill="#6C63FF"/>
<g opacity="0.2">
<path opacity="0.2" d="M113.273 5.34734C112.006 5.34734 110.743 5.38342 109.476 5.43956C161.145 7.66893 208.679 55.1594 208.679 113.46C208.679 171.76 161.141 219.251 109.476 221.48C110.743 221.536 112.01 221.572 113.273 221.572C166.381 221.572 216.265 173.168 216.265 113.46C216.265 53.752 166.381 5.34734 113.273 5.34734Z" fill="black"/>
</g>
<g opacity="0.2">
<path opacity="0.2" d="M11.7966 113.837C11.7966 54.983 64.6841 7.1116 117.062 5.75633C116.304 5.75633 115.547 5.72426 114.789 5.72426C61.6809 5.72426 7.24567 54.145 7.24567 113.837C7.24567 173.529 61.6809 221.949 114.789 221.949C115.547 221.949 116.304 221.949 117.062 221.917C64.6881 220.546 11.7966 172.695 11.7966 113.837Z" fill="white"/>
</g>
<path d="M144.192 206.777H75.5302V229.159H144.192V206.777Z" fill="#6C63FF"/>
<path opacity="0.2" d="M75.5262 13.5992C75.5262 13.5992 -6.03033 106.82 75.5262 214.082L102.459 213.99C102.459 213.99 28.1079 125.377 99.0469 6.87102L85.7709 9.89831L75.5262 13.5992Z" fill="white"/>
<path opacity="0.2" d="M146.465 12.1758C146.465 12.1758 228.022 106.804 146.465 214.078L119.532 213.986C119.532 213.986 193.883 124.619 122.944 6.10919L136.212 8.75958L146.465 12.1758Z" fill="white"/>
<defs>
<linearGradient id="paint0_linear" x1="110.996" y1="227.262" x2="110.996" y2="0.415466" gradientUnits="userSpaceOnUse">
<stop stop-color="#808080" stop-opacity="0.25"/>
<stop offset="0.54" stop-color="#808080" stop-opacity="0.12"/>
<stop offset="1" stop-color="#808080" stop-opacity="0.1"/>
</linearGradient>
<linearGradient id="paint1_linear" x1="10501.1" y1="13720.1" x2="10501.1" y2="12841" gradientUnits="userSpaceOnUse">
<stop stop-color="#808080" stop-opacity="0.25"/>
<stop offset="0.54" stop-color="#808080" stop-opacity="0.12"/>
<stop offset="1" stop-color="#808080" stop-opacity="0.1"/>
</linearGradient>
<linearGradient id="paint2_linear" x1="18883.2" y1="18081" x2="18883.2" y2="16577.9" gradientUnits="userSpaceOnUse">
<stop stop-color="#808080" stop-opacity="0.25"/>
<stop offset="0.54" stop-color="#808080" stop-opacity="0.12"/>
<stop offset="1" stop-color="#808080" stop-opacity="0.1"/>
</linearGradient>
<linearGradient id="paint3_linear" x1="12496.3" y1="11688.4" x2="12496.3" y2="11005.9" gradientUnits="userSpaceOnUse">
<stop stop-color="#808080" stop-opacity="0.25"/>
<stop offset="0.54" stop-color="#808080" stop-opacity="0.12"/>
<stop offset="1" stop-color="#808080" stop-opacity="0.1"/>
</linearGradient>
<linearGradient id="paint4_linear" x1="31581" y1="31252.9" x2="31581" y2="27521.3" gradientUnits="userSpaceOnUse">
<stop stop-color="#808080" stop-opacity="0.25"/>
<stop offset="0.54" stop-color="#808080" stop-opacity="0.12"/>
<stop offset="1" stop-color="#808080" stop-opacity="0.1"/>
</linearGradient>
<linearGradient id="paint5_linear" x1="15084.4" y1="13414.3" x2="15084.4" y2="12555.9" gradientUnits="userSpaceOnUse">
<stop stop-color="#808080" stop-opacity="0.25"/>
<stop offset="0.54" stop-color="#808080" stop-opacity="0.12"/>
<stop offset="1" stop-color="#808080" stop-opacity="0.1"/>
</linearGradient>
<linearGradient id="paint6_linear" x1="49029.9" y1="50332.5" x2="49029.9" y2="41845.1" gradientUnits="userSpaceOnUse">
<stop stop-color="#808080" stop-opacity="0.25"/>
<stop offset="0.54" stop-color="#808080" stop-opacity="0.12"/>
<stop offset="1" stop-color="#808080" stop-opacity="0.1"/>
</linearGradient>
</defs>
</svg>
